# Rhino

g object_1
v 15.16414737701416 -6.459502276760506 1.489926695823669
v 15.16414737701416 -6.459502276760506 6.643757343292236
v 17.58094215393066 -6.459502276760506 1.489926695823669
v 17.58094215393066 -6.459502276760506 6.643757343292236
v 17.58094215393066 -6.459502276760506 1.489926695823669
v 17.58094215393066 -6.459502276760506 6.643757343292236
v 17.58094215393066 7.714764817200273 1.489926695823669
v 17.58094215393066 7.714764817200273 6.643757343292236
v 17.58094215393066 7.714764817200273 1.489926695823669
v 17.58094215393066 7.714764817200273 6.643757343292236
v 15.16414737701416 7.714764817200273 1.489926695823669
v 15.16414737701416 7.714764817200273 6.643757343292236
v 15.16414737701416 7.714764817200273 1.489926695823669
v 15.16414737701416 7.714764817200273 6.643757343292236
v 15.16414737701416 -6.459502276760506 1.489926695823669
v 15.16414737701416 -6.459502276760506 6.643757343292236
v 15.16414737701416 -6.459502276760506 1.489926695823669
v 17.58094215393066 -6.459502276760506 1.489926695823669
v 17.58094215393066 7.714764817200273 1.489926695823669
v 15.16414737701416 7.714764817200273 1.489926695823669
v 15.16414737701416 -6.459502276760506 6.643757343292236
v 17.58094215393066 -6.459502276760506 6.643757343292236
v 17.58094215393066 7.714764817200273 6.643757343292236
v 15.16414737701416 7.714764817200273 6.643757343292236
vn 0 -1 0
vn 0 -1 0
vn 0 -1 0
vn 0 -1 0
vn 1 0 0
vn 1 0 0
vn 1 0 0
vn 1 0 0
vn 0 1 0
vn 0 1 0
vn 0 1 0
vn 0 1 0
vn -1 0 0
vn -1 0 0
vn -1 0 0
vn -1 0 0
vn 0 0 -1
vn 0 0 -1
vn 0 0 -1
vn 0 0 -1
vn 0 0 1
vn 0 0 1
vn 0 0 1
vn 0 0 1
f 1//1 3//3 4//4
f 5//5 7//7 8//8
f 9//9 11//11 12//12
f 13//13 15//15 16//16
f 18//18 17//17 20//20
f 20//20 19//19 18//18
f 22//22 24//24 21//21
f 24//24 22//22 23//23
f 1//1 4//4 2//2
f 5//5 8//8 6//6
f 9//9 12//12 10//10
f 13//13 16//16 14//14
